<svg width="51" height="25" viewBox="0 0 51 25" fill="none" xmlns="http://www.w3.org/2000/svg">
<g filter="url(#filter0_b_260_554)">
<path d="M0 10C0 4.47715 4.47715 0 10 0H51V9C51 17.8366 43.8366 25 35 25H0V10Z" fill="black" fill-opacity="0.16"/>
<path d="M13.721 8.9626L14.4544 10.4293C14.5544 10.6334 14.821 10.8293 15.046 10.8668L16.3752 11.0876C17.2252 11.2293 17.4252 11.8459 16.8127 12.4543L15.7794 13.4876C15.6044 13.6626 15.5085 14.0001 15.5627 14.2418L15.8585 15.5209C16.0919 16.5334 15.5544 16.9251 14.6585 16.3959L13.4127 15.6584C13.1877 15.5251 12.8169 15.5251 12.5877 15.6584L11.3419 16.3959C10.4502 16.9251 9.90854 16.5293 10.1419 15.5209L10.4377 14.2418C10.4919 14.0001 10.396 13.6626 10.221 13.4876L9.18771 12.4543C8.57937 11.8459 8.77521 11.2293 9.62521 11.0876L10.9544 10.8668C11.1752 10.8293 11.4419 10.6334 11.5419 10.4293L12.2752 8.9626C12.6752 8.16676 13.3252 8.16676 13.721 8.9626Z" fill="#FBBE21"/>
<path d="M20.38 14.49V12.95L23.24 8.5L24.31 9.23L21.79 13.17L21.91 13.37H26.39V14.49H20.38ZM24.2 16V10.77H25.51V16H24.2ZM27.1911 16V14.4H28.7511V16H27.1911ZM32.5266 8.49C33.0666 8.49 33.5233 8.58333 33.8966 8.77C34.2766 8.95 34.5833 9.2 34.8166 9.52C35.05 9.84 35.22 10.2133 35.3266 10.64C35.4333 11.06 35.4866 11.5067 35.4866 11.98V12.42C35.4866 13.6133 35.1833 14.52 34.5766 15.14C33.9766 15.7533 33.0933 16.06 31.9266 16.06C31.6733 16.06 31.4366 16.0533 31.2166 16.04C30.9966 16.0267 30.7766 16.0067 30.5566 15.98V14.79C30.7766 14.8167 31 14.8367 31.2266 14.85C31.46 14.8633 31.71 14.87 31.9766 14.87C32.5366 14.87 32.9766 14.7733 33.2966 14.58C33.6166 14.3867 33.8433 14.1033 33.9766 13.73C34.1166 13.3567 34.1866 12.8933 34.1866 12.34V11.69L34.5066 11.23C34.5 11.7433 34.3966 12.17 34.1966 12.51C34.0033 12.8433 33.7333 13.0967 33.3866 13.27C33.04 13.4367 32.6433 13.52 32.1966 13.52C31.6766 13.52 31.2333 13.4167 30.8666 13.21C30.5 13.0033 30.2166 12.7167 30.0166 12.35C29.8233 11.9833 29.7266 11.5567 29.7266 11.07C29.7266 10.5633 29.84 10.1167 30.0666 9.73C30.2933 9.33667 30.6133 9.03333 31.0266 8.82C31.4466 8.6 31.9466 8.49 32.5266 8.49ZM32.5566 9.68C32.2433 9.68 31.9766 9.74 31.7566 9.86C31.5366 9.97333 31.37 10.1333 31.2566 10.34C31.1433 10.5467 31.0866 10.7833 31.0866 11.05C31.0866 11.3233 31.14 11.5633 31.2466 11.77C31.36 11.9767 31.5233 12.1367 31.7366 12.25C31.95 12.3633 32.2066 12.42 32.5066 12.42C32.7933 12.42 33.0533 12.37 33.2866 12.27C33.5266 12.1633 33.7133 12.01 33.8466 11.81C33.9866 11.6033 34.0566 11.35 34.0566 11.05C34.0566 10.79 34 10.5567 33.8866 10.35C33.78 10.1433 33.6133 9.98 33.3866 9.86C33.1666 9.74 32.89 9.68 32.5566 9.68Z" fill="#9DC88D"/>
</g>
<defs>
<filter id="filter0_b_260_554" x="-5" y="-5" width="61" height="35" filterUnits="userSpaceOnUse" color-interpolation-filters="sRGB">
<feFlood flood-opacity="0" result="BackgroundImageFix"/>
<feGaussianBlur in="BackgroundImageFix" stdDeviation="2.5"/>
<feComposite in2="SourceAlpha" operator="in" result="effect1_backgroundBlur_260_554"/>
<feBlend mode="normal" in="SourceGraphic" in2="effect1_backgroundBlur_260_554" result="shape"/>
</filter>
</defs>
</svg>
