<svg width="10" height="11" viewBox="0 0 10 11" fill="none" xmlns="http://www.w3.org/2000/svg">
<path d="M5.72104 1.9626L6.45437 3.42926C6.55437 3.63343 6.82104 3.82926 7.04604 3.86676L8.37521 4.0876C9.22521 4.22926 9.42521 4.84593 8.81271 5.45426L7.77937 6.4876C7.60437 6.6626 7.50854 7.0001 7.56271 7.24176L7.85854 8.52093C8.09187 9.53343 7.55437 9.9251 6.65854 9.39593L5.41271 8.65843C5.18771 8.5251 4.81687 8.5251 4.58771 8.65843L3.34187 9.39593C2.45021 9.9251 1.90854 9.52926 2.14187 8.52093L2.43771 7.24176C2.49187 7.0001 2.39604 6.6626 2.22104 6.4876L1.18771 5.45426C0.579373 4.84593 0.775206 4.22926 1.62521 4.0876L2.95437 3.86676C3.17521 3.82926 3.44187 3.63343 3.54187 3.42926L4.27521 1.9626C4.67521 1.16676 5.32521 1.16676 5.72104 1.9626Z" fill="#FBBE21"/>
</svg>
